# File created by Blade
# Date/Time:  Tue Jan 27 18:12:51 2015
#---------------------------------------------------------
:version 1.10
:name HOM
:units
  mass 1.0
  length 1.000000
  angle deg
:documentation
     Acclaim Skeleton File
:root
   axis xyz
   order TX TY TZ RX RY RZ
   position 0.000000 0.000000 0.000000
   orientation 0 0 0
:bonedata
   begin
      id 1
      name Spine_dum
      direction 0.000000 1.000000 0.000000
      length 5.195262
      axis 0.0 0.0 0.0 xyz
   end
   begin
      id 2
      name LeftUpLeg_dum
      direction 1.000000 0.000000 0.000000
      length 3.351363
      axis 0.0 0.0 0.0 xyz
   end
   begin
      id 3
      name RightUpLeg_dum
      direction -1.000000 0.000000 0.000000
      length 3.351363
      axis 0.0 0.0 0.0 xyz
   end
   begin
      id 4
      name Spine
      direction 0.000000 1.000000 0.000000
      length 0.000000
      axis 0.0 0.0 0.0 xyz
      dof rx ry rz
   end
   begin
      id 5
      name Spine_dum1
      direction 0.000000 1.000000 0.000000
      length 15.653875
      axis 0.0 0.0 0.0 xyz
   end
   begin
      id 6
      name Spine_dum2
      direction 0.000000 1.000000 0.000000
      length 10.329768
      axis 0.0 0.0 0.0 xyz
   end
   begin
      id 7
      name Spine_dum3
      direction 0.000000 1.000000 0.000000
      length 10.329768
      axis 0.0 0.0 0.0 xyz
   end
   begin
      id 8
      name Head
      direction 0.000000 1.000000 0.000000
      length 4.527550
      axis 0.0 0.0 0.0 xyz
      dof rx ry rz
   end
   begin
      id 9
      name LeftShoulder
      direction 1.000000 0.000000 0.000000
      length 6.996006
      axis 0.0 0.0 -90.0 xyz
      dof rx ry rz
   end
   begin
      id 10
      name LeftArm
      direction 1.000000 0.000000 0.000000
      length 10.209302
      axis 0.0 0.0 -90.0 xyz
      dof rx ry rz
   end
   begin
      id 11
      name LeftForeArm
      direction 1.000000 0.000000 0.000000
      length 8.563163
      axis 0.0 0.0 -90.0 xyz
      dof ry rz rx
   end
   begin
      id 12
      name LeftHand
      direction 0.000000 0.000000 0.000000
      length 0.000000
      axis 0.0 0.0 -90.0 xyz
      dof rx ry rz
   end
   begin
      id 13
      name LeftHand_dum1
      direction 0.000000 0.000000 0.000000
      length 0.000000
      axis 0.0 0.0 -90.0 xyz
   end
   begin
      id 14
      name LeftHand_dum2
      direction 1.000000 0.000000 0.000000
      length 3.937000
      axis 0.0 0.0 -90.0 xyz
   end
   begin
      id 15
      name LeftHandThumb1
      direction 0.000000 0.000000 1.000000
      length 3.937000
      axis 0.0 0.0 -90.0 xyz
      dof rx rz ry
   end
   begin
      id 16
      name RightShoulder
      direction -1.000000 0.000000 0.000000
      length 6.996006
      axis 0.0 0.0 90.0 xyz
      dof rx ry rz
   end
   begin
      id 17
      name RightArm
      direction -1.000000 0.000000 0.000000
      length 10.209302
      axis 0.0 0.0 90.0 xyz
      dof rx ry rz
   end
   begin
      id 18
      name RightForeArm
      direction -1.000000 0.000000 0.000000
      length 8.563163
      axis 0.0 0.0 90.0 xyz
      dof ry rz rx
   end
   begin
      id 19
      name RightHand
      direction 0.000000 0.000000 0.000000
      length 0.000000
      axis 0.0 0.0 90.0 xyz
      dof rx ry rz
   end
   begin
      id 20
      name RightHand_dum1
      direction 0.000000 0.000000 0.000000
      length 0.000000
      axis 0.0 0.0 90.0 xyz
   end
   begin
      id 21
      name RightHand_dum2
      direction -1.000000 0.000000 0.000000
      length 3.937000
      axis 0.0 0.0 90.0 xyz
   end
   begin
      id 22
      name RightHandThumb1
      direction 0.000000 0.000000 1.000000
      length 3.937000
      axis 0.0 0.0 90.0 xyz
      dof rx rz ry
   end
   begin
      id 23
      name LeftUpLeg
      direction 0.000000 -1.000000 0.000000
      length 16.346831
      axis 0.0 0.0 0.0 xyz
      dof rx ry rz
   end
   begin
      id 24
      name LeftLeg
      direction 0.000000 -1.000000 0.000000
      length 13.959795
      axis 0.0 0.0 0.0 xyz
      dof rx ry rz
   end
   begin
      id 25
      name LeftFoot
      direction 0.000000 -0.258819 0.965926
      length 5.165550
      axis 15.0 0.0 0.0 xyz
      dof rx ry rz
   end
   begin
      id 26
      name LeftToeBase
      direction 0.000000 0.000000 1.000000
      length 2.952750
      axis 0.0 0.0 0.0 xyz
      dof rx ry rz
   end
   begin
      id 27
      name RightUpLeg
      direction 0.000000 -1.000000 0.000000
      length 16.346831
      axis 0.0 0.0 0.0 xyz
      dof rx ry rz
   end
   begin
      id 28
      name RightLeg
      direction 0.000000 -1.000000 0.000000
      length 13.959795
      axis 0.0 0.0 0.0 xyz
      dof rx ry rz
   end
   begin
      id 29
      name RightFoot
      direction 0.000000 -0.258819 0.965926
      length 5.165550
      axis 15.0 0.0 0.0 xyz
      dof rx ry rz
   end
   begin
      id 30
      name RightToeBase
      direction 0.000000 0.000000 1.000000
      length 2.952750
      axis 0.0 0.0 0.0 xyz
      dof rx ry rz
   end
:hierarchy
   begin
      root Spine_dum LeftUpLeg_dum RightUpLeg_dum
      Spine_dum Spine
      LeftUpLeg_dum LeftUpLeg
      RightUpLeg_dum RightUpLeg
      Spine Spine_dum1 Spine_dum2 Spine_dum3
      Spine_dum1 Head
      Spine_dum2 LeftShoulder
      Spine_dum3 RightShoulder
      LeftShoulder LeftArm
      LeftArm LeftForeArm
      LeftForeArm LeftHand
      LeftHand LeftHand_dum1 LeftHand_dum2
      LeftHand_dum1 LeftHandThumb1
      RightShoulder RightArm
      RightArm RightForeArm
      RightForeArm RightHand
      RightHand RightHand_dum1 RightHand_dum2
      RightHand_dum1 RightHandThumb1
      LeftUpLeg LeftLeg
      LeftLeg LeftFoot
      LeftFoot LeftToeBase
      RightUpLeg RightLeg
      RightLeg RightFoot
      RightFoot RightToeBase
   end

# File created by Blade
# Date/Time:  Tue Jan 27 18:12:42 2015
# Frame Rate: 120.000 fps
#------------------------------------------------------
:FULLY-SPECIFIED
:DEGREES
1446
root -1.549431 31.785555 -6.801022 5.731311 13.900226 3.987331
Spine -7.253682 0.993254 -4.356661
Head 8.548036 -24.972865 5.108792
LeftShoulder -11.105724 16.822102 3.811445
LeftArm 28.020969 41.059873 -66.257298
LeftForeArm -3.527778 -0.000000 15.049846
LeftHand -10.557037 0.000000 -5.047826
LeftHandThumb1 -26.253704 0.000000 33.147579
RightShoulder 6.665229 14.417626 -14.958148
RightArm 45.438981 -41.450572 39.910659
RightForeArm 26.073317 -0.000000 95.031848
RightHand -18.009387 -0.000000 0.698653
RightHandThumb1 -24.326973 -0.000000 -32.862282
LeftUpLeg -2.636802 -4.870082 -0.901560
LeftLeg 1.470910 -0.000000 -0.000000
LeftFoot -16.400361 14.142872 -23.999211
LeftToeBase 8.630877 -0.000000 -0.000000
RightUpLeg 2.253136 -7.989538 -3.673769
RightLeg -3.333325 -0.000000 0.000000
RightFoot -16.811096 -16.580276 10.148762
RightToeBase 5.401779 -0.000000 -0.000000
1447
root -1.547143 31.785924 -6.805621 5.751525 13.851354 3.997343
Spine -7.270009 1.003540 -4.328333
Head 8.613595 -24.853309 4.981344
LeftShoulder -11.102873 16.803318 3.820617
LeftArm 27.993973 41.097398 -66.279385
LeftForeArm -3.482114 -0.000000 14.975390
LeftHand -10.576327 -0.000000 -5.109511
LeftHandThumb1 -26.253704 0.000000 33.147579
RightShoulder 6.655894 14.552086 -14.905946
RightArm 44.298615 -40.352363 41.610582
RightForeArm 25.654202 0.000000 95.257699
RightHand -18.085104 -0.000000 0.628041
RightHandThumb1 -24.326973 -0.000000 -32.862282
LeftUpLeg -2.652928 -4.866112 -0.921559
LeftLeg 1.460498 -0.000000 -0.000000
LeftFoot -16.411212 14.201277 -24.002352
LeftToeBase 8.653913 -0.000000 -0.000000
RightUpLeg 2.222984 -7.982799 -3.690238
RightLeg -3.343210 -0.000000 0.000000
RightFoot -16.781216 -16.548455 10.160128
RightToeBase 5.348863 -0.000000 -0.000000
1448
root -1.545988 31.786715 -6.809888 5.765288 13.803950 3.986015
Spine -7.289666 0.973782 -4.263265
Head 8.701529 -24.675433 4.829341
LeftShoulder -11.130000 16.815227 3.794433
LeftArm 27.995356 41.132213 -66.261852
LeftForeArm -3.453889 -0.000000 14.922669
LeftHand -10.571523 -0.000000 -5.101440
LeftHandThumb1 -26.253704 0.000000 33.147579
RightShoulder 6.651730 14.826715 -14.828871
RightArm 43.117415 -39.272370 43.336200
RightForeArm 25.337297 -0.000000 95.459397
RightHand -18.125085 -0.000000 0.631843
RightHandThumb1 -24.326973 -0.000000 -32.862282
LeftUpLeg -2.666790 -4.868813 -0.916496
LeftLeg 1.447782 -0.000000 -0.000000
LeftFoot -16.412724 14.260586 -23.997693
LeftToeBase 8.614175 -0.000000 -0.000000
RightUpLeg 2.192552 -7.968088 -3.682831
RightLeg -3.347801 -0.000000 0.000000
RightFoot -16.748149 -16.540796 10.106326
RightToeBase 5.334129 -0.000000 -0.000000
1449
root -1.543646 31.787807 -6.814876 5.796834 13.743451 3.986752
Spine -7.325991 0.985603 -4.215964
Head 8.777343 -24.512890 4.685992
LeftShoulder -11.132098 16.809504 3.774923
LeftArm 28.000758 41.184052 -66.239999
LeftForeArm -3.398218 -0.000000 14.852197
LeftHand -10.648944 -0.000000 -5.519229
LeftHandThumb1 -26.253704 0.000000 33.147579
RightShoulder 6.691566 14.974627 -14.798196
RightArm 41.922928 -38.025036 45.122156
RightForeArm 25.040295 -0.000000 95.722405
RightHand -18.099139 -0.000000 0.561787
RightHandThumb1 -24.326973 -0.000000 -32.862282
LeftUpLeg -2.700383 -4.853825 -0.926393
LeftLeg 1.447960 -0.000000 -0.000000
LeftFoot -16.430452 14.293635 -24.030243
LeftToeBase 8.631971 -0.000000 -0.000000
RightUpLeg 2.138063 -7.944892 -3.689872
RightLeg -3.339153 -0.000000 0.000000
RightFoot -16.743903 -16.503050 10.114666
RightToeBase 5.379789 -0.000000 -0.000000
